<svg width="719" height="1061" viewBox="0 0 719 1061" fill="none" xmlns="http://www.w3.org/2000/svg">
<path d="M278.41 877.53L314.29 951.1H96.19L131.85 877.53H96.19L132.54 802.54H277.72L314.29 877.53H278.41Z" fill="#CE3F8F"/>
<path d="M134.17 951.1H276.3V989.45C276.3 1028.67 244.46 1060.51 205.24 1060.51C166.02 1060.51 134.18 1028.67 134.18 989.45V951.1H134.17Z" fill="#6D3AC6"/>
<path d="M578.34 877.53L614.22 951.1H396.12L431.78 877.53H396.12L432.47 802.54H577.65L614.22 877.53H578.34Z" fill="#CE3F8F"/>
<path d="M434.1 951.1H576.23V989.45C576.23 1028.67 544.39 1060.51 505.17 1060.51C465.95 1060.51 434.11 1028.67 434.11 989.45V951.1H434.1Z" fill="#6D3AC6"/>
<path d="M573.16 721.83L627.97 802.54H82.43L136.96 721.67H82.43L136.96 639.74H100.61L136.96 558.09L282.21 579.26L573.16 578.44L609.22 639.74H573.05L573.16 639.9L627.97 721.67H573.05L573.16 721.83Z" fill="#FFDD00"/>
<path d="M125.22 657.38L155.16 685.53L206.05 637.55L255.49 686.63L306.01 638.64L356.54 686.63L405.98 637.55L456.5 685.53L507.39 637.19L516.81 646.6L549.23 677.21L579.39 649.2L591.08 666.63L549.6 708.11L549.34 707.85L506.67 665.54L456.14 716.07L405.61 665.54L355.09 716.07L305.65 666.63L255.12 714.61L206.05 665.91L155.52 716.43L113.28 675.31" fill="black"/>
<path d="M136.93 558.09C136.93 534.88 132.68 504.29 121.77 486.84C107.23 463.58 81.06 447.58 30.17 447.22L29.44 476.3C47.62 475.57 65.06 477.39 79.97 486.84C92.69 494.84 103.23 507.92 111.23 529.73C66.88 514.46 41.44 519.19 23.63 530.82C14.18 537 6.91 544.63 0 552.99L19.99 571.53C21.08 569.71 22.53 568.26 23.63 566.8C45.44 540.99 70.52 541.72 97.06 555.89C39.26 583.52 30.18 632.23 33.08 667.49C35.62 667.85 61.43 667.49 61.43 667.49C58.89 633.32 79.62 586.37 130.51 572.56L136.93 558.08V558.09Z" fill="#6D3AC6"/>
<path d="M591.08 578.81L282.73 579.25L309.96 494.82H282.99L309.96 422.14H563.96L591.08 495.19H563.96L591.08 578.81Z" fill="#1DB9D2"/>
<path d="M602.38 422.5L276.28 422.87L329.59 313.45H293.4L347.06 208.04L602.38 264.01V422.5Z" fill="#FFDD00"/>
<path d="M602.38 422.5V264.01C602.38 264.01 696.24 285.14 716.43 337.4C717.89 341.17 718.5 345.22 718.5 349.27C722.3 420.33 602.39 422.5 602.39 422.5H602.38Z" fill="#CE3F8F"/>
<path d="M522.34 246.47C607.76 127.97 649.99 69.37 616.18 40.66C594.01 21.76 561.37 37.73 512.67 74.08C510.85 112.97 504.28 166.38 491.92 239.81L522.34 246.48V246.47Z" fill="#008599"/>
<path d="M486.78 2.12C440.62 -9.15 413.95 64.82 347.06 208.04L495.88 240.67C508.24 167.24 515.03 113.53 514.77 71.92C516.59 30.12 509.32 7.58 486.78 2.13V2.12Z" fill="#1DB9D2"/>
<path d="M503.21 353.12C522.098 353.12 537.41 337.808 537.41 318.92C537.41 300.032 522.098 284.72 503.21 284.72C484.322 284.72 469.01 300.032 469.01 318.92C469.01 337.808 484.322 353.12 503.21 353.12Z" fill="white"/>
<path d="M503.21 335.47C512.35 335.47 519.76 328.06 519.76 318.92C519.76 309.78 512.35 302.37 503.21 302.37C494.07 302.37 486.66 309.78 486.66 318.92C486.66 328.06 494.07 335.47 503.21 335.47Z" fill="black"/>
<path d="M602.38 416.42V422.5H582.99L541.01 404.35C537.77 403.06 533.51 398.32 535.27 394.92C536.32 392.82 540.52 390.31 547.3 392.97L602.37 416.42H602.38Z" fill="black"/>
</svg>
